<?xml version="1.0" encoding="UTF-8"?>
<!DOCTYPE svg PUBLIC "-//W3C//DTD SVG 1.1//EN" "http://www.w3.org/Graphics/SVG/1.1/DTD/svg11.dtd">
<svg version="1.1" xmlns="http://www.w3.org/2000/svg" xmlns:xlink="http://www.w3.org/1999/xlink" x="0" y="0" width="528" height="44" viewBox="0, 0, 528, 44">
  <g id="toned_back_black_menu_bar_">
    <g id="gear_login">
      <path d="M451.57,2.168 L443.42,9.399 L447.274,14.984 L440.429,15.573 L440,26.678 L447.183,27.799 L442.676,33.444 L450.217,41.028 L456.285,36.536 L457.246,43.871 L466.246,44 L467.566,36.742 L473.292,41.45 L481.112,34.099 L476.968,28.335 L483.984,27.596 L484,16.43 L477.345,15.522 L481.366,10.274 L473.529,2.661 L468.465,6.571 L467.512,0.245 L457.839,-0 L456.729,6.349 z" fill="#FFFFFF" id="path4426"/>
      <g id="path4428">
        <path d="M467.106,20.607 C467.955,22.936 466.737,25.506 464.386,26.347 C462.034,27.188 459.44,25.982 458.591,23.652 C457.742,21.323 458.96,18.753 461.311,17.912 C463.663,17.071 466.257,18.277 467.106,20.607 z" fill="#000000"/>
        <path d="M467.106,20.607 C467.955,22.936 466.737,25.506 464.386,26.347 C462.034,27.188 459.44,25.982 458.591,23.652 C457.742,21.323 458.96,18.753 461.311,17.912 C463.663,17.071 466.257,18.277 467.106,20.607 z" fill-opacity="0" stroke="#FFFFFF" stroke-width="2.893"/>
      </g>
    </g>
    <path d="M380.489,-0 L380.489,15.549 L396,15.551 L395.998,28.517 L380.489,28.515 L380.489,44 L367.523,44 L367.523,28.513 L352,28.511 L352.002,15.546 L367.523,15.548 L367.523,-0 L380.489,-0 z" fill="#EAE7D1" id="Plus"/>
    <path d="M264,0 L264,35.2 L273.515,13.453 L278.825,15.945 L266.2,44 L286,44 L290.412,34.196 L295.786,36.718 L292.6,44 L308,44 L308,8.8 L298.518,30.474 L293.208,27.983 L305.8,0 L286,0 L281.643,9.681 L276.268,7.158 L279.4,0 L264,0 z" fill="#EAE7D1" id="H_Logo"/>
    <path d="M193.594,43.55 C181.693,41.117 174.017,29.496 176.45,17.594 C178.883,5.693 190.504,-1.983 202.406,0.45 C214.307,2.883 221.983,14.504 219.55,26.406 C217.117,38.307 205.496,45.983 193.594,43.55 z M195.912,31.704 C201.193,32.783 206.348,29.378 207.428,24.098 C208.507,18.817 205.102,13.662 199.822,12.582 C194.542,11.503 189.386,14.908 188.307,20.188 C187.227,25.468 190.632,30.624 195.912,31.704 z M197.81,23.209 C198.445,23.339 199.066,22.929 199.196,22.293 C199.326,21.658 198.916,21.038 198.28,20.908 C197.645,20.778 197.024,21.188 196.894,21.823 C196.765,22.458 197.174,23.079 197.81,23.209 z M183.719,20.094 C182.919,25.414 184.982,30.739 189.111,33.992 L190.349,32.42 C186.788,29.616 185.003,25.007 185.696,20.392 L183.719,20.094 z M180.078,18.62 C178.623,25.68 181.239,32.938 186.801,37.252 L188.027,35.672 C183.072,31.829 180.735,25.343 182.037,19.023 L180.078,18.62 z M206.727,10.534 L205.478,12.096 C209.018,14.927 210.769,19.55 210.04,24.16 L212.015,24.472 C212.855,19.158 210.833,13.818 206.727,10.534 z M209.062,7.291 L207.825,8.863 C212.751,12.742 215.039,19.246 213.689,25.555 L215.645,25.974 C217.153,18.925 214.592,11.647 209.062,7.291 z" fill="#EAE7D1" id="Record_"/>
    <path d="M114.166,0 L132,18.735 L132,18.804 L105.875,44 L88,44 L88,25.321 L114.166,0 z M97.155,31.619 C95.586,31.751 94.614,32.611 94.158,34.085 C93.819,35.753 94.888,37.382 96.545,37.723 C98.203,38.064 99.821,36.988 100.16,35.32 C100.499,33.652 99.43,32.024 97.772,31.683 L97.155,31.619 z" fill="#EAE7D1" id="Tag"/>
    <path d="M33.33,0 L44,18.631 L44,44 L-0,44 L-0,18.989 L33.192,0 L33.33,0 z M32.607,31.115 L27.107,31.115 L27.107,34.666 L14.715,34.658 L14.714,36.658 L27.107,36.666 L27.107,40.071 L29.367,40.071 L29.367,31.115 L30.31,31.115 L30.31,40.071 L32.607,40.071 L32.607,36.669 L38.073,36.672 L38.074,34.672 L32.607,34.669 L32.607,31.115 z M12.691,19.566 C9.561,19.566 7.024,22.103 7.024,25.233 C7.024,28.363 9.561,30.9 12.691,30.9 C15.821,30.9 18.358,28.363 18.358,25.233 C18.072,22.398 16.62,20.496 13.833,19.681 L12.691,19.566 z M14.247,25.566 L14.247,25.566 C15.044,25.566 15.691,26.213 15.691,27.011 C15.691,27.809 15.044,28.455 14.247,28.455 C13.449,28.455 12.802,27.809 12.802,27.011 C12.802,26.213 13.449,25.566 14.247,25.566 z M28.924,11.767 C26.344,11.833 27.421,11.591 25.638,12.188 C22.785,13.476 21.516,16.832 22.803,19.684 C24.091,22.537 27.447,23.806 30.299,22.519 C33.152,21.232 34.422,17.876 33.134,15.023 C32.148,13.317 30.928,12.192 28.924,11.767 z M25.785,14.928 C26.98,15.381 26.59,15.019 27.136,15.779 C27.464,16.506 27.141,17.362 26.414,17.69 C25.687,18.018 24.831,17.694 24.503,16.967 C24.175,16.24 24.498,15.384 25.226,15.056 L25.785,14.928 z" fill="#EAE7D1"/>
    <path d="M-102,44 L132,44 L132,224 L-102,224 L-102,44 z" fill="#026101"/>
    <path d="M132,44 L245,44 L245,224 L132,224 L132,44 z" fill="#AE3C02"/>
    <path d="M245,44 L579.568,44 L579.568,224 L245,224 L245,44 z" fill="#224455"/>
  </g>
</svg>
